PathFileType	4	(X/Y/Z)	C:/Users/beibeiliu/ov580/test_trc\sequence.30_training_dense_right.trc
DataRate	CameraRate	NumFrames	NumMarkers	Units	OrigDataRate	OrigDataStartFrame	OrigNumFrames
120	120	8	19	mm	120	133	354
Frame#	Time	ThumbCMC			ThumbMCP			ThumbIP			ThumbTip			IndexMCP			IndexPIP			IndexTip			MiddleMCP			MiddlePIP			MiddleTip			RingMCP			RingPIP			RingTip			PinkyMCP			PinkyPIP			PinkyTip			BackHand1			BackHand2			BackHand3	
		X0	Y0	Z0	X1	Y1	Z1	X2	Y2	Z2	X3	Y3	Z3	X4	Y4	Z4	X5	Y5	Z5	X6	Y6	Z6	X7	Y7	Z7	X8	Y8	Z8	X9	Y9	Z9	X10	Y10	Z10	X11	Y11	Z11	X12	Y12	Z12	X13	Y13	Z13	X14	Y14	Z14	X15	Y15	Z15	X16	Y16	Z16	X17	Y17	Z17	X18	Y18	Z18	
132	1.1	235.561	1.09259	71.5079	250.545	-3.06148	51.2065	260.86	-13.5006	29.1504	266.707	-17.051	14.9386	226.153	-22.6953	6.40602	230.335	-28.1776	-15.1984	239.018	-35.5018	-40.7137	206.314	-20.3166	-2.42192	201.818	-17.0095	-30.0751	198.064	-12.8871	-52.0318	190.331	5.21802	1.24791	198.647	29.0672	2.3279	205.109	24.5933	31.4961	175.962	9.38434	13.2665	190.822	31.4533	19.6537	197.297	22.0679	38.9557	186.105	-19.3217	47.79	184.035	-13.7512	74.9142	213.223	-20.2425	63.5008	
133	1.10833	236.929	0.498139	71.7085	248.316	-5.10237	47.0436	257.371	-11.0687	30.7261	268.22	-17.1105	14.8388	232.763	-25.1444	5.55671	235.686	-29.1096	-16.0272	235.85	-35.7553	-40.4612	203.164	-19.4108	-4.16391	206.507	-17.9083	-25.3801	199.581	-13.6661	-52.0272	189.975	3.6534	2.33966	196.467	29.6888	3.77895	200.954	27.5284	31.851	176.158	11.8572	11.4419	189.37	32.7503	20.8354	198.609	23.0715	37.9854	188.58	-17.9827	46.5539	190.661	-16.6463	72.2381	216.037	-19.6306	61.6138	
134	1.11667	233.354	0.254672	71.1926	248.396	-3.06382	50.115	263.805	-13.3949	30.6401	272.499	-19.8469	15.3519	230.248	-25.7726	7.06568	238.661	-29.8314	-12.6609	241.205	-35.7924	-38.7019	208.088	-21.8062	-3.39399	205.656	-18.7427	-27.5861	201.178	-12.0573	-56.2729	194.299	2.42803	1.38323	200.377	27.8829	2.87307	207.081	22.2598	33.4125	178.933	7.61902	13.0834	193.791	29.7726	18.5401	200.744	22.4272	38.9696	190.623	-19.5157	49.9603	189.442	-13.1349	77.0451	212.338	-20.3495	64.0109	
135	1.125	236.307	-1.33624	70.4041	253.411	-4.38253	51.526	264.802	-13.976	31.7065	271.257	-19.522	16.572	234.756	-24.938	9.56209	235.555	-30.0529	-13.0813	239.415	-35.6196	-35.7536	206.165	-20.7717	-4.63858	205.876	-18.6814	-26.9616	203.94	-14.1674	-50.8267	195.159	4.84157	-0.32725	202.979	29.5132	5.93387	205.529	26.4223	31.1021	180.76	9.42828	13.2623	192.918	31.9917	19.3744	200.235	23.7171	41.6166	189.848	-17.7812	46.1376	189.923	-15.0184	77.2655	214.665	-19.5772	60.0686	
136	1.13333	237.027	1.09782	73.0439	249.797	-4.08693	50.581	260.841	-11.9723	32.8237	271.505	-19.5216	17.4327	230.472	-24.6712	9.94456	240.693	-30.0032	-10.503	241.926	-35.0408	-37.1372	206.843	-19.734	-2.79763	209.106	-18.6273	-23.8643	204.276	-12.9385	-49.8406	192.497	3.28193	2.97551	200.981	28.3892	4.07684	206.479	26.3427	33.4055	181.244	9.41765	12.3864	192.815	31.6517	19.3182	202.602	22.236	40.6835	189.839	-18.7641	46.8839	187.279	-11.8688	77.094	214.204	-20.6305	61.711	
137	1.14167	238.251	2.10406	72.7983	251.885	-3.89443	50.4027	264.711	-13.8163	32.7215	271.612	-16.5478	18.6557	233.571	-25.6649	7.21168	240.71	-29.0931	-11.8199	245.573	-34.6033	-34.0349	208.191	-19.3001	-2.21277	210.358	-18.1862	-29.0022	207.896	-12.285	-51.2897	193.593	4.5286	0.40321	204.574	30.5001	5.80127	208.731	24.6365	33.5923	183.397	12.0973	11.5405	193.636	31.687	18.1743	198.319	23.6802	43.9191	187.071	-17.8607	49.1045	192.6	-15.0629	76.1311	218.035	-19.2549	61.7976	
138	1.15	238.773	2.49483	72.2441	253.678	-1.94511	52.6374	265.95	-11.2224	33.9512	277.586	-16.4175	19.4697	233.287	-24.5644	7.09177	241.83	-29.524	-13.9071	243.894	-33.4886	-34.5437	209.354	-19.8811	-3.36286	210.191	-16.2072	-29.0777	204.445	-11.4875	-49.1403	194.605	3.17535	3.89692	201.296	31.6148	5.5114	209.219	26.1486	32.5831	183.152	11.9627	11.8699	194.576	31.7211	18.2826	201.004	24.4969	44.0226	191.842	-18.9546	47.5796	189.564	-14.0181	75.2419	216.525	-16.6234	64.6856	
139	1.15833	235.157	4.7239	72.378	250.022	-1.39395	50.5911	265.184	-9.17863	33.8215	272.64	-13.6746	19.693	237.648	-22.8673	8.30556	242.699	-27.1287	-14.4764	245.527	-31.0813	-32.9954	210.717	-19.2199	-2.11272	209.584	-15.3503	-28.5502	204.669	-9.72158	-50.4038	197.43	4.00846	4.2122	201.232	30.1426	3.58072	206.479	27.0689	33.9494	180.822	13.9255	12.5294	193.145	32.2153	16.675	201.316	25.5325	43.3718	192.935	-16.8676	47.9381	190.68	-13.4064	76.7442	215.708	-16.5867	64.309	
